<?xml version="1.0" encoding="UTF-8"?>
<svg width="512px" height="512px" viewBox="0 0 512 512" xmlns="http://www.w3.org/2000/svg">
   <path fill="#673AB7" d="M256 8C119 8 8 119 8 256s111 248 248 248 248-111 248-248S393 8 256 8zm0 448c-110.5 0-200-89.5-200-200S145.5 56 256 56s200 89.5 200 200-89.5 200-200 200z"/>
   <path fill="#673AB7" d="M256 128c-44.1 0-80 35.9-80 80s35.9 80 80 80 80-35.9 80-80-35.9-80-80-80zm0 128c-26.5 0-48-21.5-48-48s21.5-48 48-48 48 21.5 48 48-21.5 48-48 48z"/>
   <path fill="#673AB7" d="M256 280c-66.2 0-120 53.8-120 120h32c0-48.5 39.5-88 88-88s88 39.5 88 88h32c0-66.2-53.8-120-120-120z"/>
</svg>
