<?xml version="1.0" encoding="UTF-8"?>
<svg width="512px" height="512px" viewBox="0 0 512 512" xmlns="http://www.w3.org/2000/svg">
   <path fill="#2E7D32" d="M256 8C119.043 8 8 119.083 8 256c0 136.997 111.043 248 248 248s248-111.003 248-248C504 119.083 392.957 8 256 8zm0 448c-110.532 0-200-89.431-200-200 0-110.495 89.472-200 200-200 110.491 0 200 89.471 200 200 0 110.53-89.431 200-200 200z"/>
   <path fill="#2E7D32" d="M350.5 304.5c-3.051-3.051-8.018-3.051-11.069 0L264.5 379.5c-3.05 3.051-3.05 8.017 0 11.068 3.051 3.052 8.018 3.052 11.069 0l74.93-74.931c3.052-3.051 3.052-8.017 0-11.068z"/>
   <path fill="#2E7D32" d="M256 128c-70.692 0-128 57.308-128 128s57.308 128 128 128 128-57.308 128-128-57.308-128-128-128zm0 240c-61.75 0-112-50.25-112-112s50.25-112 112-112 112 50.25 112 112-50.25 112-112 112z"/>
   <path fill="#2E7D32" d="M256 160c-52.935 0-96 43.065-96 96s43.065 96 96 96 96-43.065 96-96-43.065-96-96-96zm0 176c-44.183 0-80-35.817-80-80s35.817-80 80-80 80 35.817 80 80-35.817 80-80 80z"/>
</svg>
