<?xml version="1.0" encoding="UTF-8"?>
<svg width="512px" height="512px" viewBox="0 0 512 512" xmlns="http://www.w3.org/2000/svg">
   <path fill="#FF6F00" d="M464 352V192c0-17.6-14.4-32-32-32h-32V96c0-17.6-14.4-32-32-32H144c-17.6 0-32 14.4-32 32v64H80c-17.6 0-32 14.4-32 32v160H32v32h48v16c0 8.8 7.2 16 16 16h32c8.8 0 16-7.2 16-16v-16h256v16c0 8.8 7.2 16 16 16h32c8.8 0 16-7.2 16-16v-16h48v-32h-48zm-368-84c0-13.2 10.8-24 24-24s24 10.8 24 24-10.8 24-24 24-24-10.8-24-24zm272 0c0-13.2 10.8-24 24-24s24 10.8 24 24-10.8 24-24 24-24-10.8-24-24zm-176-140h112c4.4 0 8 3.6 8 8v40c0 4.4-3.6 8-8 8H192c-4.4 0-8-3.6-8-8v-40c0-4.4 3.6-8 8-8zm-64 64h240c4.4 0 8 3.6 8 8v152H144V200c0-4.4 3.6-8 8-8z"/>
</svg>
