<?xml version="1.0" encoding="UTF-8"?>
<svg width="512px" height="512px" viewBox="0 0 512 512" xmlns="http://www.w3.org/2000/svg">
   <path fill="#1565C0" d="M448 96h-64V64c0-17.6-14.4-32-32-32H160c-17.6 0-32 14.4-32 32v32H64c-17.6 0-32 14.4-32 32v256c0 17.6 14.4 32 32 32h384c17.6 0 32-14.4 32-32V128c0-17.6-14.4-32-32-32zM160 72c0-4.4 3.6-8 8-8h176c4.4 0 8 3.6 8 8v24H160V72zm288 304c0 4.4-3.6 8-8 8H72c-4.4 0-8-3.6-8-8V136c0-4.4 3.6-8 8-8h48v32h272v-32h48c4.4 0 8 3.6 8 8v240z"/>
   <path fill="#1565C0" d="M128 304h256v32H128zm168-112v80h-80v-80h80m8-16h-96c-4.4 0-8 3.6-8 8v96c0 4.4 3.6 8 8 8h96c4.4 0 8-3.6 8-8v-96c0-4.4-3.6-8-8-8z"/>
</svg>
